<?xml version="1.0" encoding="utf-8"?>
<!-- Generator: Adobe Illustrator 19.0.1, SVG Export Plug-In . SVG Version: 6.00 Build 0)  -->
<svg version="1.1" id="Layer_1" xmlns="http://www.w3.org/2000/svg" xmlns:xlink="http://www.w3.org/1999/xlink" x="0px" y="0px"
	 viewBox="-206 359 198 66.5" style="enable-background:new -206 359 198 66.5;" xml:space="preserve">
<style type="text/css">
	.st0{fill:#55C9FA;}
</style>
<path d="M-41.6,419.3h-48.6v6.2h-33.6v-6.2h-48.6v6.2h-33.5v-3c0-4.3,0-8.7,0-13v-3H-8.1v3c0,4.3,0,8.7,0,13v3h-33.5V419.3
	L-41.6,419.3z"/>
<path class="st0" d="M-202.9,409.5h191.8c0,6.5,0,6.5,0,13h-27.6v-6.2h-54.6v6.2h-27.5v-6.2h-54.6v6.2h-27.5
	C-202.9,416-202.9,416-202.9,409.5L-202.9,409.5z"/>
<path d="M-44.7,372.2h-43.9v6.7h-36.7v-6.7h-43.9v6.7H-206V376c0-4.7,0-9.4,0-14.2V359H-8v2.8c0,4.7,0,9.4,0,14.2v2.8h-36.7V372.2
	L-44.7,372.2z"/>
<path class="st0" d="M-201.1,361.9h188.2c0,7.1,0,7.1,0,14.2H-40v-6.7h-53.5v6.6h-27.1v-6.7h-53.5v6.7h-26.9
	C-201.1,369-201.1,369-201.1,361.9L-201.1,361.9z"/>
</svg>
