<?xml version="1.0" encoding="utf-8"?>
<!-- Generator: Adobe Illustrator 19.0.1, SVG Export Plug-In . SVG Version: 6.00 Build 0)  -->
<svg version="1.1" id="Слой_1" xmlns="http://www.w3.org/2000/svg" xmlns:xlink="http://www.w3.org/1999/xlink" x="0px" y="0px"
	 viewBox="0 0 209.4 80.8" style="enable-background:new 0 0 209.4 80.8;" xml:space="preserve">
<style type="text/css">
	.st0{clip-path:url(#SVGID_2_);}
	.st1{clip-path:url(#SVGID_2_);fill-rule:evenodd;clip-rule:evenodd;}
</style>
<path d="M3.3,63.9h202.9v13.8h-29.2v-6.6h-57.7v6.6H90.2v-6.6H32.5v6.6H3.3V63.9z M0.2,60.7v3.2v13.8v3.2h35.5v-6.6h51.4v6.6h35.5
	v-6.6H174v6.6h35.5V60.7H0.2z"/>
<g>
	<defs>
		<rect id="SVGID_1_" y="0" width="209.4" height="80.8"/>
	</defs>
	<clipPath id="SVGID_2_">
		<use xlink:href="#SVGID_1_"  style="overflow:visible;"/>
	</clipPath>
	<path class="st0" d="M27.4,21.3h-6.5l-1.3-10.8l-4.1,10.8h-3.6l-4-10.8L6.5,21.3H0L3.1,0h7.1l3.5,10.8L17.3,0h7.1L27.4,21.3z
		 M53.7,21.3h-6.5V9.3l-7.9,11.9H33V0h6.5v12.1l8-12.1h6.2V21.3z M77.7,7.2c0,2.2-0.7,3.9-2,5.1c-1.4,1.2-3.3,1.8-5.9,1.8H67v7.2
		h-6.5V0h8.8c2.8,0,5,0.7,6.4,2C77,3.3,77.7,5,77.7,7.2 M71,7.1c0-1.5-0.9-2.3-2.8-2.3H67v4.6h1.2C70,9.4,71,8.6,71,7.1"/>
	<path class="st1" d="M85.1,0v3v15.1v3h23V14h27.6v7.2h23V14h27.6v7.2h23v-3V3.1V0H85.1z M206.4,18.1h-17V11h-33.6v7.2h-17V11h-33.6
		v7.2h-17V3.1h118.3V18.1z"/>
	<path class="st0" d="M19.9,51.2h-6.5V35.3H6.7v15.9H0.2V30h19.7V51.2z M48.7,40.6c0,3.2-1,5.8-3.1,7.9c-2.2,2.2-5.1,3.3-8.7,3.3
		c-3.6,0-6.6-1.1-8.8-3.3C26,46.4,25,43.7,25,40.6s1-5.8,3.1-7.9c2.2-2.2,5.1-3.3,8.8-3.3c3.6,0,6.5,1.1,8.7,3.3
		C47.7,34.8,48.7,37.4,48.7,40.6 M41.9,40.6c0-1.5-0.5-2.8-1.5-3.8c-1-1-2.2-1.5-3.6-1.5c-1.4,0-2.6,0.5-3.6,1.5
		c-1,1-1.5,2.3-1.5,3.8c0,1.5,0.5,2.8,1.5,3.8c1,1,2.2,1.5,3.6,1.5c1.4,0,2.6-0.5,3.6-1.5C41.4,43.4,41.9,42.1,41.9,40.6 M74.9,55.4
		h-6v-4.2h-11v4.2h-6v-9.6c1.4,0,2.3-0.7,2.9-2.1c0.4-1.1,0.6-2.8,0.6-5.1V30h17.1v15.9h2.4V55.4z M66,45.9V35.3h-4.4v4.9
		c0,2.8-0.6,4.7-1.9,5.6H66z M104,55.4h-6v-4.2H87v4.2h-6v-9.6c1.4,0,2.3-0.7,2.9-2.1c0.4-1.1,0.6-2.8,0.6-5.1V30h17.1v15.9h2.4
		V55.4z M95.1,45.9V35.3h-4.4v4.9c0,2.8-0.6,4.7-1.9,5.6H95.1z M132.1,40.6c0,3.2-1,5.8-3.1,7.9c-2.2,2.2-5.1,3.3-8.7,3.3
		c-3.6,0-6.6-1.1-8.8-3.3c-2.1-2.1-3.1-4.7-3.1-7.9s1-5.8,3.1-7.9c2.2-2.2,5.1-3.3,8.8-3.3c3.6,0,6.5,1.1,8.7,3.3
		C131,34.8,132.1,37.4,132.1,40.6 M125.3,40.6c0-1.5-0.5-2.8-1.5-3.8c-1-1-2.2-1.5-3.6-1.5c-1.4,0-2.6,0.5-3.6,1.5
		c-1,1-1.5,2.3-1.5,3.8c0,1.5,0.5,2.8,1.5,3.8c1,1,2.2,1.5,3.6,1.5c1.4,0,2.6-0.5,3.6-1.5C124.8,43.4,125.3,42.1,125.3,40.6
		 M157,51.2h-6.5v-8.4h-6.8v8.4h-6.5V30h6.5v8h6.8v-8h6.5V51.2z M186.1,40.6c0,3.2-1,5.8-3.1,7.9c-2.2,2.2-5.1,3.3-8.7,3.3
		c-3.6,0-6.6-1.1-8.8-3.3c-2.1-2.1-3.1-4.7-3.1-7.9s1-5.8,3.1-7.9c2.2-2.2,5.1-3.3,8.8-3.3c3.6,0,6.5,1.1,8.7,3.3
		C185,34.8,186.1,37.4,186.1,40.6 M179.3,40.6c0-1.5-0.5-2.8-1.5-3.8c-1-1-2.2-1.5-3.6-1.5c-1.4,0-2.6,0.5-3.6,1.5
		c-1,1-1.5,2.3-1.5,3.8c0,1.5,0.5,2.8,1.5,3.8c1,1,2.2,1.5,3.6,1.5c1.4,0,2.6-0.5,3.6-1.5C178.8,43.4,179.3,42.1,179.3,40.6
		 M209.4,44.9c0,1.9-0.6,3.3-1.9,4.4c-1.4,1.2-3.4,1.8-6.2,1.8h-9.7V30h9.2c2.3,0,4,0.6,5.2,1.7c1,1,1.5,2.2,1.5,3.6
		c0,1.9-0.9,3.3-2.8,4.2c1.4,0.3,2.6,1,3.4,1.9C209,42.3,209.4,43.5,209.4,44.9 M201.7,36.5c0-1.3-0.8-1.9-2.4-1.9h-1.2v3.9h0.7
		C200.8,38.4,201.7,37.8,201.7,36.5 M202.7,44.6c0-1.4-0.9-2.1-2.6-2.1h-1.9v4h1.7c0.8,0,1.5-0.2,2-0.5
		C202.4,45.7,202.7,45.2,202.7,44.6"/>
</g>
</svg>
