<?xml version="1.0" encoding="utf-8"?>
<!-- Generator: Adobe Illustrator 23.0.3, SVG Export Plug-In . SVG Version: 6.00 Build 0)  -->
<svg version="1.1" id="Layer_1" xmlns="http://www.w3.org/2000/svg" xmlns:xlink="http://www.w3.org/1999/xlink" x="0px" y="0px"
	 viewBox="0 0 444.3805542 169.4171448" style="enable-background:new 0 0 444.3805542 169.4171448;" xml:space="preserve">
<style type="text/css">
	.st0{fill:#AB7F44;}
	.st1{fill:#B88F5A;}
	.st2{fill:#F7EC26;}
	.st3{fill:#E0B57E;}
	.st4{fill:#E7C08C;}
	.st5{fill-rule:evenodd;clip-rule:evenodd;fill:#55C9FA;}
	.st6{fill-rule:evenodd;clip-rule:evenodd;fill:#0B89BF;}
	.st7{fill-rule:evenodd;clip-rule:evenodd;fill:#2FABE0;}
	.st8{fill-rule:evenodd;clip-rule:evenodd;}
	.st9{fill:#FFFFFF;}
	.st10{fill-rule:evenodd;clip-rule:evenodd;fill:#FFFFFF;}
</style>
<g>
	<path class="st0" d="M44.026062,91.5551147v-4.2723999l99.9785156,26.8398285v4.2729492c0,0.9396667,0,0.9459229,0,1.0698242
		c0,0.4920654-0.3248901,0.0558472-0.8121338,0.3373108l-23.8575134,14.0950012
		c-1.0802917,0.6233215-1.8864441-0.2687378-2.9667664-0.8920593L44.8387451,92.9624786
		C44.2967529,92.649826,44.026062,92.1024628,44.026062,91.5551147L44.026062,91.5551147L44.026062,91.5551147z"/>
	<path class="st1" d="M60.9641724,161.8151703v-9.5938416l30.3446045-3.0421448v9.5938721
		c0,0.5473633-0.2704468,1.0952759-0.812439,1.4076843l-15.1871338,8.7687073c-1.0800171,0.6235962-2.4111938,0.6235962-3.4911499,0
		l-10.0411682-5.726593C61.2354736,162.910202,60.9641724,162.3628387,60.9641724,161.8151703L60.9641724,161.8151703
		L60.9641724,161.8151703z"/>
	<path class="st2" d="M90.4963379,147.7714691l-10.0402832-5.7259521c-1.0803223-0.6236267-2.4108582-0.6236267-3.4911499,0
		l-15.1880188,8.7684021c-1.0831604,0.6256104-1.0831604,2.189209,0,2.8148193l10.0411682,5.7265625
		c1.0799561,0.6233215,2.4111328,0.6233215,3.4911499,0l15.1871338-8.7690125
		C91.5800781,149.9606781,91.5800781,148.3973846,90.4963379,147.7714691L90.4963379,147.7714691L90.4963379,147.7714691z"/>
	<path class="st1" d="M28.8218384,143.2420197v-9.5941467l30.3442993-3.0427246v9.5944519
		c0,0.5470886-0.2701111,1.0944519-0.8126526,1.4071045l-15.1874695,8.7689819
		c-1.0797119,0.6230469-2.4103394,0.6230469-3.4908752,0l-10.0411682-5.7265625
		C29.0922852,144.3370514,28.8218384,143.7891083,28.8218384,143.2420197L28.8218384,143.2420197z"/>
	<path class="st2" d="M58.3534851,129.1980438l-10.0403137-5.7262573c-1.0805664-0.6236267-2.4108582-0.6236267-3.4911499,0
		l-15.1880493,8.7686768c-1.0831299,0.6256104-1.0831299,2.189209,0,2.8145447l10.0411682,5.7262268
		c1.0805359,0.6236572,2.4111633,0.6236572,3.4908752,0l15.1874695-8.7686462
		C59.4368896,131.3869781,59.4368896,129.8233795,58.3534851,129.1980438L58.3534851,129.1980438z"/>
	<path class="st1" d="M0,126.5765839v-9.5939026l30.3449097-3.0426636v9.5941162
		c0,0.5473938-0.2706909,1.0944519-0.8124084,1.4074097l-15.1877747,8.7687073
		c-1.0799561,0.6235962-2.4111328,0.6235962-3.4911194,0L0.8127136,127.983963C0.2709961,127.6710358,0,127.1236725,0,126.5765839
		L0,126.5765839z"/>
	<path class="st2" d="M29.5325012,112.5323334l-10.0411682-5.7260132c-1.0797119-0.6236267-2.4105835-0.6236267-3.4908447,0
		l-15.1877747,8.7690125c-1.0834045,0.6256104-1.0834045,2.1888733,0,2.8142395l10.0408936,5.7262268
		c1.0799866,0.6236572,2.4111633,0.6236572,3.4911194,0l15.1877747-8.7687073
		C30.6161499,114.7217865,30.6161499,113.1582184,29.5325012,112.5323334L29.5325012,112.5323334z"/>
	<path class="st1" d="M113.659668,131.4720001v-9.5949707l30.3449097-3.5271606v10.0788879
		c0,0.5476074-0.2709961,1.0950012-0.8124084,1.4076538l-15.1878052,8.7684021
		c-1.0805359,0.6239319-2.4111328,0.6239319-3.4911194,0l-10.040863-5.725708
		C113.9309387,132.5661774,113.659668,132.0188141,113.659668,131.4720001L113.659668,131.4720001L113.659668,131.4720001z"/>
	<path class="st0" d="M143.1924438,116.9095612l-10.041748-5.7262573c-1.0791626-0.6239014-2.410553-0.6239014-3.4899902,0
		l-15.1880493,8.7684326c-1.0837097,0.6255798-1.0837097,2.1889038,0,2.8147888l10.0405884,5.725708
		c1.0802917,0.6239014,2.4108582,0.6239014,3.4911194,0l15.1880798-8.7684021
		C144.2752686,119.098526,144.2752686,117.5346222,143.1924438,116.9095612L143.1924438,116.9095612z"/>
	<path class="st0" d="M0,117.1389008v-4.272644l91.3087769,32.1664124v4.2726746c0,0.546814-0.2704468,1.0941467-0.812439,1.4073792
		l-15.1871338,8.7686768c-1.0800171,0.6233521-2.4111938,0.6233521-3.4911499,0L0.8127136,118.5460358
		C0.2709961,118.2333832,0,117.6857147,0,117.1389008L0,117.1389008z"/>
	<path class="st3" d="M90.4963379,143.6249847L19.491333,102.6904449c-1.0797119-0.6236267-2.4105835-0.6236267-3.4908447,0
		L0.8127136,111.458847c-1.0834045,0.6253052-1.0834045,2.1891785,0,2.8145142l71.0053406,40.9351196
		c1.0799561,0.6239319,2.4111328,0.6239319,3.4911499,0l15.1871338-8.7689819
		C91.5800781,145.8144379,91.5800781,144.2505951,90.4963379,143.6249847L90.4963379,143.6249847z"/>
	<path class="st3" d="M135.978241,117.3039093L64.9729614,76.3690491c-1.0802917-0.6233521-2.4108887-0.6233521-3.4911499,0
		l-15.1875,8.7684021c-1.0836792,0.6253357-1.0836792,2.189209,0,2.8145142l71.0047607,40.9351349
		c1.0802612,0.6233521,2.4108887,0.6233521,3.4911804,0l15.1879883-8.7690125
		C137.0610962,119.4927826,137.0610962,117.9292145,135.978241,117.3039093L135.978241,117.3039093z"/>
	<path class="st1" d="M81.1802979,86.562439v-4.2723846L0,108.6652985v4.2723694
		c0,0.5470886,0.2709961,1.0947266,0.8127136,1.4076843l15.1877747,8.7684021c1.0802612,0.6239319,2.4111328,0.6239319,3.4908447,0
		l60.8762817-35.1439209C80.9096069,87.6571655,81.1802979,87.1095276,81.1802979,86.562439L81.1802979,86.562439
		L81.1802979,86.562439z"/>
	<path class="st4" d="M0.8127136,107.258194l60.8759766-35.1436768c1.0802917-0.6241913,2.4108582-0.6241913,3.4911804,0
		L80.3676147,80.88237c1.0834045,0.6261749,1.0834045,2.1894836,0,2.8150787L19.491333,118.8411102
		c-1.0797119,0.6236267-2.4105835,0.6236267-3.4908447,0l-15.1877747-8.7684021
		C-0.2706909,109.4473724-0.2706909,107.8837738,0.8127136,107.258194L0.8127136,107.258194z"/>
	<path class="st1" d="M108.9895935,102.6927032v-4.2720947l-81.1794128,26.374939v4.2727051
		c0,0.5470581,0.2703857,1.0944214,0.8126831,1.4076843l15.1874695,8.7684021c1.0802917,0.6235962,2.4111328,0.6235962,3.4911194,0
		l60.8757324-35.1439514C108.7194824,103.7874298,108.9895935,103.2400665,108.9895935,102.6927032L108.9895935,102.6927032
		L108.9895935,102.6927032z"/>
	<path class="st4" d="M28.6228638,123.3881683l60.8760071-35.1439514c1.0802917-0.6236115,2.4108582-0.6236115,3.4911194,0
		l15.1871948,8.7687225c1.0836792,0.6255798,1.0836792,2.1891785,0,2.8144989l-60.8757324,35.1439514
		c-1.0799866,0.6235962-2.4108276,0.6235962-3.4911194,0l-15.1874695-8.7684021
		C27.5394287,125.5773773,27.5394287,124.0137787,28.6228638,123.3881683L28.6228638,123.3881683z"/>
	<path class="st1" d="M144.0048218,114.7827301v-4.565155L55.619751,140.9261017v4.2718201
		c0,0.5473938,0.2709961,1.0950317,0.8126831,1.4074402l15.1882935,8.7686462c1.0800171,0.6236267,2.4103394,0.6236267,3.4909058,0
		l68.0813599-39.1841431C143.734436,115.8769073,144.0048218,115.3301239,144.0048218,114.7827301L144.0048218,114.7827301
		L144.0048218,114.7827301z"/>
	<path class="st4" d="M56.4324341,139.5187225l70.7556152-39.5087128c1.0802612-0.623642,2.4102783-0.623642,3.4908447,0
		l12.1288757,8.0954437c1.5522766,1.0360718,1.5094604,3.080719,0.3605652,3.6972351l-68.0567017,39.2989807
		c-1.0805664,0.6233215-2.4108887,0.6233215-3.4909058,0l-15.1882935-8.7687073
		C55.3495789,141.7076569,55.3495789,140.1437531,56.4324341,139.5187225L56.4324341,139.5187225z"/>
	<path class="st5" d="M14.0899048,33.2529602l57.8789063,33.252655l57.9464111-33.252655
		C128.2824707,32.3161011,73.604126,0.9379883,71.968811,0C37.2084351,19.9941864,50.5650024,12.32164,14.0899048,33.2529602
		L14.0899048,33.2529602z"/>
	<path class="st6" d="M71.968811,66.5056152l-57.8789063-33.252655c0,2.2657166,0,68.6570892,0,66.5058899
		c34.7879028,19.9626923,21.4903259,12.32164,57.8789063,33.2529144V66.5056152L71.968811,66.5056152z"/>
	<path class="st7" d="M71.968811,66.5056152v66.5061493c2.2155762-1.2710266,59.765686-34.2963715,57.9464111-33.2529144
		c0-1.8827667,0-64.6979523,0-66.5058899L71.968811,66.5056152L71.968811,66.5056152z"/>
	<path class="st9" d="M165.9665222,33.0071869v10.3592224h12.4310913v33.5891266h11.6143494V43.3664093h12.3690186V33.0071869
		H165.9665222L165.9665222,33.0071869z M212.1170959,76.9555359l2.5115051-6.9060516h18.2077942l2.5106201,6.9060516h11.9291077
		l-17.2658997-43.948349h-12.5563049l-17.2650146,43.948349H212.1170959L212.1170959,76.9555359z M222.6024475,47.9497375
		c0.3795776-1.0655518,0.753479-2.1347809,1.1302185-4.4580383c0.3764038,2.3232574,0.7511902,3.39534,1.1298828,4.4580383
		l4.5203857,12.6824799h-11.3008728L222.6024475,47.9497375L222.6024475,47.9497375z M252.0271606,33.0071869v43.948349h11.6147461
		V63.142868h5.7764893c10.8612061,0,19.1485596-3.5155182,19.1485596-15.0678406
		c0-11.5523071-8.288208-15.0678406-19.1485596-15.0678406H252.0271606L252.0271606,33.0071869z M276.6379395,48.0750275
		c0,3.9554596-3.1396484,5.0232697-6.6546631,5.0232697h-6.3413696V43.052597h6.3413696
		C273.4988403,43.052597,276.6379395,44.1198578,276.6379395,48.0750275L276.6379395,48.0750275z M298.2773438,76.9555359
		l2.5114746-6.9060516h18.2075195l2.5109253,6.9060516h11.9290161l-17.2658081-43.948349h-12.5563354l-17.2652588,43.948349
		H298.2773438L298.2773438,76.9555359z M308.7626953,47.9497375c0.3764038-1.0669556,0.7531738-2.1347809,1.1298828-4.4580383
		c0.376709,2.3232574,0.7533569,3.3910828,1.130188,4.4580383l4.5203857,12.6824799h-11.3009033L308.7626953,47.9497375
		L308.7626953,47.9497375z"/>
	<path class="st9" d="M165.4744263,110.0704498c0,11.8504944,7.5963135,22.181366,22.7894592,22.181366
		c15.1930847,0,22.7893982-10.3308716,22.7893982-22.181366c0-11.8514099-7.5963135-22.182251-22.7893982-22.182251
		C173.0707397,87.8881989,165.4744263,98.2190399,165.4744263,110.0704498L165.4744263,110.0704498z M199.5063477,110.0704498
		c0,6.8059387-3.8888245,11.8504944-11.2424622,11.8504944c-7.3536682,0-11.2433472-5.0445557-11.2433472-11.8504944
		c0-6.8068542,3.889679-11.8514099,11.2433472-11.8514099C195.6175232,98.2190399,199.5063477,103.2635956,199.5063477,110.0704498
		L199.5063477,110.0704498z M244.9933472,88.7998199v16.2870178h-15.8011475V88.7998199H217.949707v42.5404053h11.2424927
		v-16.2261047h15.8011475v16.2261047h11.2424316V88.7998199H244.9933472L244.9933472,88.7998199z M272.3694458,88.7998199
		c-0.9725342,12.8840332-0.8505859,31.9663086-7.7183838,32.695343c-1.1540527,0.1213684-2.1265259,0-2.9168701-0.2431946v9.7846375
		c1.8842163,0.6074829,3.6462402,0.8506775,5.2268066,0.8506775c12.2150879-0.0609436,14.3419189-15.618042,15.6792603-33.0602112
		h9.1765747v32.5131531h11.2425537V88.7998199H272.3694458L272.3694458,88.7998199z M319.678894,131.3402252l2.4309082-6.6846924
		h17.6245117l2.4304199,6.6846924h11.546936l-16.7128296-42.5404053h-12.1541138l-16.7119141,42.5404053H319.678894
		L319.678894,131.3402252z M329.8283691,103.2635956c0.3644409-1.0326843,0.7290649-2.0664673,1.093811-4.3151855
		c0.364624,2.2487183,0.7294312,3.2825012,1.0939331,4.3151855l4.3755493,12.2762756h-10.9389648L329.8283691,103.2635956
		L329.8283691,103.2635956z M385.8284912,131.3402252v-17.3809509c0-2.309082,0.0612183-4.9827271,0.2434692-6.9882202
		l-16.6519165,24.3691711H358.78479V88.7998199h11.2424927v17.3809509c0,2.3700256-0.0600586,5.0439148-0.2423096,7.049469
		l16.6515503-24.4304199h10.6347046v42.5404053H385.8284912L385.8284912,131.3402252z M433.1381226,88.7998199v16.2870178
		h-15.8011475V88.7998199h-11.2424927v42.5404053h11.2424927v-16.2261047h15.8011475v16.2261047h11.2424316V88.7998199H433.1381226
		L433.1381226,88.7998199z"/>
	<polygon class="st10" points="367.9004517,75.9767303 387.9555664,75.9767303 387.9555664,83.6339569 367.9004517,83.6339569 
		367.9004517,75.9767303 	"/>
</g>
</svg>
