<?xml version="1.0" encoding="utf-8"?>
<!-- Generator: Adobe Illustrator 23.0.3, SVG Export Plug-In . SVG Version: 6.00 Build 0)  -->
<svg version="1.1" id="Layer_1" xmlns="http://www.w3.org/2000/svg" xmlns:xlink="http://www.w3.org/1999/xlink" x="0px" y="0px"
	 viewBox="0 0 444.3805542 169.4171143" style="enable-background:new 0 0 444.3805542 169.4171143;" xml:space="preserve">
<style type="text/css">
	.st0{fill:#AB7F44;}
	.st1{fill:#B88F5A;}
	.st2{fill:#F7EC26;}
	.st3{fill:#E0B57E;}
	.st4{fill:#E7C08C;}
	.st5{fill-rule:evenodd;clip-rule:evenodd;fill:#55C9FA;}
	.st6{fill-rule:evenodd;clip-rule:evenodd;fill:#0B89BF;}
	.st7{fill-rule:evenodd;clip-rule:evenodd;fill:#2FABE0;}
	.st8{fill-rule:evenodd;clip-rule:evenodd;}
	.st9{fill:#FFFFFF;}
	.st10{fill-rule:evenodd;clip-rule:evenodd;fill:#FFFFFF;}
</style>
<g>
	<path class="st0" d="M44.026062,91.5550537v-4.2723694l99.9785156,26.8398132v4.2729492c0,0.9396973,0,0.9459534,0,1.0698242
		c0,0.4920959-0.3248901,0.0558167-0.8121338,0.3372803l-23.8575134,14.0950317
		c-1.0802917,0.6233521-1.8864441-0.2687073-2.9667664-0.8920593L44.8387451,92.9624634
		C44.2967529,92.6498108,44.026062,92.102417,44.026062,91.5550537L44.026062,91.5550537L44.026062,91.5550537z"/>
	<path class="st1" d="M60.9641724,161.8151245v-9.593811l30.3446045-3.0421753v9.5938721
		c0,0.5473633-0.2704468,1.0953064-0.812439,1.4076843l-15.1871338,8.7687073c-1.0800171,0.6236267-2.4111938,0.6236267-3.4911499,0
		l-10.0411682-5.7265625C61.2354736,162.9101868,60.9641724,162.362793,60.9641724,161.8151245L60.9641724,161.8151245
		L60.9641724,161.8151245z"/>
	<path class="st2" d="M90.4963379,147.7714539l-10.0402832-5.7259827c-1.0803223-0.6235962-2.4108582-0.6235962-3.4911499,0
		l-15.1880188,8.7684021c-1.0831604,0.6256104-1.0831604,2.189209,0,2.8147888l10.0411682,5.726593
		c1.0799561,0.6233521,2.4111328,0.6233521,3.4911499,0l15.1871338-8.7690125
		C91.5800781,149.9606323,91.5800781,148.3973694,90.4963379,147.7714539L90.4963379,147.7714539L90.4963379,147.7714539z"/>
	<path class="st1" d="M28.8218384,143.2420044v-9.5941467l30.3442993-3.0427246v9.5944214
		c0,0.5471191-0.2701111,1.0944519-0.8126526,1.4071045l-15.1874695,8.7690125
		c-1.0797119,0.6230164-2.4103394,0.6230164-3.4908752,0l-10.0411682-5.726593
		C29.0922852,144.3370361,28.8218384,143.789093,28.8218384,143.2420044L28.8218384,143.2420044z"/>
	<path class="st2" d="M58.3534851,129.197998l-10.0403137-5.7262573c-1.0805664-0.6235962-2.4108582-0.6235962-3.4911499,0
		l-15.1880493,8.7686768c-1.0831299,0.6256104-1.0831299,2.189209,0,2.8145447l10.0411682,5.7262573
		c1.0805359,0.6236572,2.4111633,0.6236572,3.4908752,0l15.1874695-8.7686768
		C59.4368896,131.3869324,59.4368896,129.8233337,58.3534851,129.197998L58.3534851,129.197998z"/>
	<path class="st1" d="M0,126.5765381v-9.5938721l30.3449097-3.0426941v9.5941162
		c0,0.5473633-0.2706909,1.0944519-0.8124084,1.4074402l-15.1877747,8.7687073
		c-1.0799561,0.6235657-2.4111328,0.6235657-3.4911194,0l-10.0408936-5.7262878C0.2709961,127.6709595,0,127.1236267,0,126.5765381
		L0,126.5765381z"/>
	<path class="st2" d="M29.5325012,112.5322876l-10.0411682-5.7260132c-1.0797119-0.6235657-2.4105835-0.6235657-3.4908447,0
		l-15.1877747,8.7690125c-1.0834045,0.6256104-1.0834045,2.1888733,0,2.814209l10.0408936,5.7262573
		c1.0799866,0.6236572,2.4111633,0.6236572,3.4911194,0l15.1877747-8.7686768
		C30.6161499,114.7217407,30.6161499,113.1582031,29.5325012,112.5322876L29.5325012,112.5322876z"/>
	<path class="st1" d="M113.659668,131.4719849v-9.5950012l30.3449097-3.5271301v10.0788574
		c0,0.5476685-0.2709961,1.0950317-0.8124084,1.4076843l-15.1878052,8.7684021
		c-1.0805359,0.6238708-2.4111328,0.6238708-3.4911194,0l-10.040863-5.725708
		C113.9309387,132.5661621,113.659668,132.0187988,113.659668,131.4719849L113.659668,131.4719849L113.659668,131.4719849z"/>
	<path class="st0" d="M143.1924438,116.9095459l-10.041748-5.7262878c-1.0791626-0.6239014-2.410553-0.6239014-3.4899902,0
		l-15.1880493,8.7684326c-1.0837097,0.6255798-1.0837097,2.1889343,0,2.8147888l10.0405884,5.7257385
		c1.0802917,0.6238708,2.4108582,0.6238708,3.4911194,0l15.1880798-8.7684326
		C144.2752686,119.0984497,144.2752686,117.5346069,143.1924438,116.9095459L143.1924438,116.9095459z"/>
	<path class="st0" d="M0,117.138855v-4.272644l91.3087769,32.1664429v4.2726135c0,0.5468445-0.2704468,1.0941772-0.812439,1.4074402
		l-15.1871338,8.7686768c-1.0800171,0.6233215-2.4111938,0.6233215-3.4911499,0L0.8127136,118.54599
		C0.2709961,118.2333374,0,117.6856689,0,117.138855L0,117.138855z"/>
	<path class="st3" d="M90.4963379,143.6249695L19.491333,102.6904297c-1.0797119-0.6236877-2.4105835-0.6236877-3.4908447,0
		l-15.1877747,8.7683716c-1.0834045,0.6253052-1.0834045,2.1891785,0,2.8145142l71.0053406,40.9351196
		c1.0799561,0.6239319,2.4111328,0.6239319,3.4911499,0l15.1871338-8.7689514
		C91.5800781,145.8144226,91.5800781,144.2505798,90.4963379,143.6249695L90.4963379,143.6249695z"/>
	<path class="st3" d="M135.978241,117.3038635L64.9729614,76.368988c-1.0802917-0.6233215-2.4108887-0.6233215-3.4911499,0
		l-15.1875,8.7684326c-1.0836792,0.6253357-1.0836792,2.189209,0,2.8145447l71.0047607,40.9351196
		c1.0802612,0.6233215,2.4108887,0.6233215,3.4911804,0l15.1879883-8.7690125
		C137.0610962,119.4927368,137.0610962,117.9291992,135.978241,117.3038635L135.978241,117.3038635z"/>
	<path class="st1" d="M81.1802979,86.5623779v-4.2723694L0,108.6652527v4.2723694
		c0,0.5470886,0.2709961,1.0947571,0.8127136,1.4076843l15.1877747,8.7684021c1.0802612,0.6239014,2.4111328,0.6239014,3.4908447,0
		l60.8762817-35.1439209C80.9096069,87.657135,81.1802979,87.1094666,81.1802979,86.5623779L81.1802979,86.5623779
		L81.1802979,86.5623779z"/>
	<path class="st4" d="M0.8127136,107.2581177l60.8759766-35.1436462c1.0802917-0.624176,2.4108582-0.624176,3.4911804,0
		l15.1877441,8.7678528c1.0834045,0.6261597,1.0834045,2.1895142,0,2.8151245L19.491333,118.841095
		c-1.0797119,0.6235657-2.4105835,0.6235657-3.4908447,0l-15.1877747-8.7684326
		C-0.2706909,109.4473267-0.2706909,107.883728,0.8127136,107.2581177L0.8127136,107.2581177z"/>
	<path class="st1" d="M108.9895935,102.692688v-4.2720947l-81.1794128,26.3749084v4.2727051
		c0,0.5470886,0.2703857,1.0944214,0.8126831,1.4076843l15.1874695,8.7684021c1.0802917,0.6235962,2.4111328,0.6235962,3.4911194,0
		l60.8757324-35.1439209C108.7194824,103.787384,108.9895935,103.2400513,108.9895935,102.692688L108.9895935,102.692688
		L108.9895935,102.692688z"/>
	<path class="st4" d="M28.6228638,123.3881531l60.8760071-35.1439514c1.0802917-0.6236572,2.4108582-0.6236572,3.4911194,0
		l15.1871948,8.7687073c1.0836792,0.6255798,1.0836792,2.1891785,0,2.8145142L47.3014526,134.971344
		c-1.0799866,0.6235962-2.4108276,0.6235962-3.4911194,0l-15.1874695-8.7684021
		C27.5394287,125.5773315,27.5394287,124.0137329,28.6228638,123.3881531L28.6228638,123.3881531z"/>
	<path class="st1" d="M144.0048218,114.7827148v-4.5651855L55.619751,140.9260864v4.2717896
		c0,0.5473938,0.2709961,1.0950317,0.8126831,1.4074402l15.1882935,8.7686462c1.0800171,0.6236572,2.4103394,0.6236572,3.4909058,0
		l68.0813599-39.1841125C143.734436,115.8768616,144.0048218,115.3301086,144.0048218,114.7827148L144.0048218,114.7827148
		L144.0048218,114.7827148z"/>
	<path class="st4" d="M56.4324341,139.5186768l70.7556152-39.5086975c1.0802612-0.6236572,2.4102783-0.6236572,3.4908447,0
		l12.1288757,8.095459c1.5522766,1.0360413,1.5094604,3.080658,0.3605652,3.6972351l-68.0567017,39.2989502
		c-1.0805664,0.6233521-2.4108887,0.6233521-3.4909058,0l-15.1882935-8.7686768
		C55.3495789,141.7076111,55.3495789,140.1437378,56.4324341,139.5186768L56.4324341,139.5186768z"/>
	<path class="st5" d="M14.0899048,33.2528992l57.8789063,33.252655l57.9464111-33.252655
		C128.2824707,32.31604,73.604126,0.9379883,71.968811,0C37.2084351,19.9941406,50.5650024,12.3216553,14.0899048,33.2528992
		L14.0899048,33.2528992z"/>
	<path class="st6" d="M71.968811,66.5055542l-57.8789063-33.252655c0,2.2657776,0,68.6571045,0,66.5058899
		c34.7879028,19.962738,21.4903259,12.3216248,57.8789063,33.2529602V66.5055542L71.968811,66.5055542z"/>
	<path class="st7" d="M71.968811,66.5055542v66.5061951c2.2155762-1.2710571,59.765686-34.2963867,57.9464111-33.2529602
		c0-1.882782,0-64.6979675,0-66.5058899L71.968811,66.5055542L71.968811,66.5055542z"/>
	<path d="M165.9665222,33.0071716v10.3591919h12.4310913v33.5891418h11.6143494V43.3663635h12.3690186V33.0071716H165.9665222
		L165.9665222,33.0071716z M212.1170959,76.9555054l2.5115051-6.9060364h18.2077942l2.5106201,6.9060364h11.9291077
		l-17.2658997-43.9483337h-12.5563049l-17.2650146,43.9483337H212.1170959L212.1170959,76.9555054z M222.6024475,47.9496765
		c0.3795776-1.0654907,0.753479-2.1347351,1.1302185-4.4580078c0.3764038,2.3232727,0.7511902,3.3952942,1.1298828,4.4580078
		l4.5203857,12.6825256h-11.3008728L222.6024475,47.9496765L222.6024475,47.9496765z M252.0271606,33.0071716v43.9483337h11.6147461
		V63.1428223h5.7764893c10.8612061,0,19.1485596-3.5155029,19.1485596-15.0678406
		c0-11.5523071-8.288208-15.0678101-19.1485596-15.0678101H252.0271606L252.0271606,33.0071716z M276.6379395,48.0749817
		c0,3.9554749-3.1396484,5.0233154-6.6546631,5.0233154h-6.3413696V43.0525513h6.3413696
		C273.4988403,43.0525513,276.6379395,44.1197815,276.6379395,48.0749817L276.6379395,48.0749817z M298.2773438,76.9555054
		l2.5114746-6.9060364h18.2075195l2.5109253,6.9060364h11.9290161l-17.2658081-43.9483337h-12.5563354L286.348877,76.9555054
		H298.2773438L298.2773438,76.9555054z M308.7626953,47.9496765c0.3764038-1.066925,0.7531738-2.1347351,1.1298828-4.4580078
		c0.376709,2.3232727,0.7533569,3.3910828,1.130188,4.4580078l4.5203857,12.6825256h-11.3009033L308.7626953,47.9496765
		L308.7626953,47.9496765z"/>
	<path d="M165.4744263,110.0704041c0,11.8505249,7.5963135,22.1813965,22.7894592,22.1813965
		c15.1930847,0,22.7893982-10.3308716,22.7893982-22.1813965c0-11.8513489-7.5963135-22.1822205-22.7893982-22.1822205
		C173.0707397,87.8881836,165.4744263,98.2190552,165.4744263,110.0704041L165.4744263,110.0704041z M199.5063477,110.0704041
		c0,6.8059692-3.8888245,11.8505249-11.2424622,11.8505249c-7.3536682,0-11.2433472-5.0445557-11.2433472-11.8505249
		c0-6.8068542,3.889679-11.8513489,11.2433472-11.8513489C195.6175232,98.2190552,199.5063477,103.2635498,199.5063477,110.0704041
		L199.5063477,110.0704041z M244.9933472,88.7997742v16.2870178h-15.8011475V88.7997742H217.949707v42.5404053h11.2424927
		v-16.2261047h15.8011475v16.2261047h11.2424316V88.7997742H244.9933472L244.9933472,88.7997742z M272.3694458,88.7997742
		c-0.9725342,12.8840332-0.8505859,31.9663086-7.7183838,32.6953735c-1.1540527,0.1213379-2.1265259,0-2.9168701-0.2432251
		v9.7846375c1.8842163,0.6074829,3.6462402,0.850708,5.2268066,0.850708
		c12.2150879-0.0609436,14.3419189-15.6180725,15.6792603-33.0601807h9.1765747v32.513092h11.2425537V88.7997742H272.3694458
		L272.3694458,88.7997742z M319.678894,131.3401794l2.4309082-6.6846924h17.6245117l2.4304199,6.6846924h11.546936
		l-16.7128296-42.5404053h-12.1541138l-16.7119141,42.5404053H319.678894L319.678894,131.3401794z M329.8283691,103.2635498
		c0.3644409-1.0326538,0.7290649-2.0664368,1.093811-4.3151855c0.364624,2.2487488,0.7294312,3.2825317,1.0939331,4.3151855
		l4.3755493,12.2762756h-10.9389648L329.8283691,103.2635498L329.8283691,103.2635498z M385.8284912,131.3401794v-17.3809509
		c0-2.309082,0.0612183-4.9827271,0.2434692-6.9882202l-16.6519165,24.3691711H358.78479V88.7997742h11.2424927v17.3809204
		c0,2.3700562-0.0600586,5.0439758-0.2423096,7.0494995l16.6515503-24.4304199h10.6347046v42.5404053H385.8284912
		L385.8284912,131.3401794z M433.1381226,88.7997742v16.2870178h-15.8011475V88.7997742h-11.2424927v42.5404053h11.2424927
		v-16.2261047h15.8011475v16.2261047h11.2424316V88.7997742H433.1381226L433.1381226,88.7997742z"/>
	<polygon class="st8" points="367.9004517,75.9766846 387.9555664,75.9766846 387.9555664,83.6339111 367.9004517,83.6339111 
		367.9004517,75.9766846 	"/>
</g>
</svg>
