<?xml version="1.0" encoding="utf-8"?>
<!-- Generator: Adobe Illustrator 22.1.0, SVG Export Plug-In . SVG Version: 6.00 Build 0)  -->
<svg version="1.1" id="Layer_1" xmlns="http://www.w3.org/2000/svg" xmlns:xlink="http://www.w3.org/1999/xlink" x="0px" y="0px"
	 viewBox="0 0 198 76" style="enable-background:new 0 0 198 76;" xml:space="preserve">
<style type="text/css">
	.st0{fill-rule:evenodd;clip-rule:evenodd;}
	.st1{fill-rule:evenodd;clip-rule:evenodd;fill:#55C9FA;}
</style>
<g>
	<path class="st0" d="M164.5,69.8h-48.6V76H82.3v-6.2H33.7V76H0.2v-3c0-4.3,0-8.7,0-13v-3H198v3c0,4.3,0,8.7,0,13v3h-33.5V69.8
		L164.5,69.8z"/>
	<path class="st1" d="M3.2,60H195c0,6.5,0,6.5,0,13h-27.6v-6.2h-54.6V73H85.3v-6.2H30.7V73H3.2C3.2,66.5,3.2,66.5,3.2,60L3.2,60z"/>
	<path d="M25.9,20h-6.2L18.5,9.8L14.6,20h-3.4L7.5,9.8L6.2,20H0L3,0h6.7L13,10.2L16.4,0h6.7L25.9,20L25.9,20z M50.8,20h-6.2V8.8
		L37.1,20h-5.9V0h6.2v11.4L45,0h5.8V20L50.8,20z M73.5,6.8c0,2.1-0.6,3.7-1.9,4.8c-1.3,1.1-3.1,1.7-5.6,1.7h-2.6V20h-6.2V0h8.3
		c2.7,0,4.7,0.6,6.1,1.9C72.8,3.1,73.5,4.7,73.5,6.8L73.5,6.8z M67.1,6.7c0-1.4-0.9-2.1-2.6-2.1h-1.2v4.3h1.1
		C66.2,8.8,67.1,8.1,67.1,6.7L67.1,6.7z"/>
	<path class="st0" d="M176.2,13.2h-26.1v6.7h-21.8v-6.7h-26.1v6.7H80.4V17c0-4.7,0-9.4,0-14.2V0H198v2.8c0,4.7,0,9.4,0,14.2v2.8
		h-21.8V13.2L176.2,13.2z"/>
	<path class="st1" d="M83.3,2.9h111.8c0,7.1,0,7.1,0,14.2H179v-6.7h-31.8V17h-16.1v-6.7H99.3V17H83.3C83.3,10,83.3,10,83.3,2.9
		L83.3,2.9z"/>
	<path d="M18.8,48.1h-6.2V33.2H6.3v14.9H0.2V28.2h18.6V48.1L18.8,48.1z M46,38.1c0,3-1,5.4-2.9,7.4c-2.1,2.1-4.8,3.1-8.3,3.1
		c-3.4,0-6.2-1-8.3-3.1c-2-2-2.9-4.4-2.9-7.4c0-3,1-5.4,2.9-7.4c2.1-2.1,4.8-3.1,8.3-3.1c3.4,0,6.2,1,8.3,3.1
		C45.1,32.7,46,35.2,46,38.1L46,38.1z M39.6,38.1c0-1.4-0.5-2.6-1.4-3.6c-0.9-0.9-2-1.4-3.4-1.4c-1.3,0-2.5,0.5-3.4,1.4
		c-0.9,0.9-1.4,2.1-1.4,3.6c0,1.4,0.5,2.6,1.4,3.6c0.9,0.9,2,1.4,3.4,1.4c1.3,0,2.5-0.5,3.4-1.4C39.1,40.8,39.6,39.6,39.6,38.1
		L39.6,38.1z M70.8,52.1h-5.7v-4H54.8v4h-5.7v-9c1.3,0,2.2-0.7,2.7-2c0.4-1.1,0.6-2.6,0.6-4.8v-8.2h16.2v14.9h2.2V52.1L70.8,52.1z
		 M62.4,43.1v-9.9h-4.2v4.6c0,2.7-0.6,4.4-1.8,5.3H62.4L62.4,43.1z M98.3,52.1h-5.7v-4H82.2v4h-5.7v-9c1.3,0,2.2-0.7,2.7-2
		c0.4-1.1,0.6-2.6,0.6-4.8v-8.2h16.2v14.9h2.2V52.1L98.3,52.1z M89.9,43.1v-9.9h-4.2v4.6c0,2.7-0.6,4.4-1.8,5.3H89.9L89.9,43.1z
		 M124.9,38.1c0,3-1,5.4-2.9,7.4c-2.1,2.1-4.8,3.1-8.3,3.1c-3.4,0-6.2-1-8.3-3.1c-2-2-2.9-4.4-2.9-7.4c0-3,1-5.4,2.9-7.4
		c2.1-2.1,4.8-3.1,8.3-3.1c3.4,0,6.2,1,8.3,3.1C123.9,32.7,124.9,35.2,124.9,38.1L124.9,38.1z M118.4,38.1c0-1.4-0.5-2.6-1.4-3.6
		c-0.9-0.9-2-1.4-3.4-1.4c-1.3,0-2.5,0.5-3.4,1.4c-0.9,0.9-1.4,2.1-1.4,3.6c0,1.4,0.5,2.6,1.4,3.6c0.9,0.9,2,1.4,3.4,1.4
		c1.3,0,2.5-0.5,3.4-1.4C118,40.8,118.4,39.6,118.4,38.1L118.4,38.1z M148.4,48.1h-6.2v-7.9h-6.4v7.9h-6.2V28.2h6.2v7.5h6.4v-7.5
		h6.2V48.1L148.4,48.1z M175.9,38.1c0,3-1,5.4-2.9,7.4c-2.1,2.1-4.8,3.1-8.3,3.1c-3.4,0-6.2-1-8.3-3.1c-2-2-2.9-4.4-2.9-7.4
		c0-3,1-5.4,2.9-7.4c2.1-2.1,4.8-3.1,8.3-3.1c3.4,0,6.2,1,8.3,3.1C174.9,32.7,175.9,35.2,175.9,38.1L175.9,38.1z M169.5,38.1
		c0-1.4-0.5-2.6-1.4-3.6c-0.9-0.9-2-1.4-3.4-1.4c-1.3,0-2.5,0.5-3.4,1.4c-0.9,0.9-1.4,2.1-1.4,3.6c0,1.4,0.5,2.6,1.4,3.6
		c0.9,0.9,2,1.4,3.4,1.4c1.3,0,2.5-0.5,3.4-1.4C169,40.8,169.5,39.6,169.5,38.1L169.5,38.1z M198,42.2c0,1.8-0.6,3.1-1.8,4.2
		c-1.3,1.1-3.3,1.7-5.8,1.7h-9.1V28.2h8.7c2.1,0,3.8,0.5,4.9,1.6c1,0.9,1.5,2,1.5,3.4c0,1.8-0.9,3.1-2.7,3.9
		c1.4,0.3,2.4,0.9,3.2,1.8C197.6,39.8,198,40.9,198,42.2L198,42.2z M190.7,34.3c0-1.2-0.7-1.8-2.2-1.8h-1.1v3.6h0.7
		C189.8,36.1,190.7,35.5,190.7,34.3L190.7,34.3z M191.6,41.9c0-1.3-0.8-2-2.4-2h-1.8v3.8h1.6c0.8,0,1.4-0.1,1.9-0.4
		C191.4,43,191.6,42.5,191.6,41.9L191.6,41.9z"/>
</g>
</svg>
